# xmcd CD database file
#
# Track frame offsets:
#	150
#	10295
#	19347
#	30000
#	37878
#	46746
#	58696
#	71085
#	80286
#	93004
#	105036
#	114834
#	126660
#	138692
#	150481
#	162623
#	173225
#	184583
#	194805
#	208491
#	219943
#	234395
#	251190
#	269740
#	282612
#
# Disc length: 3834 seconds
#
# Revision: 3
# Processed by: cddbd v1.5.1PL0 Copyright (c) Steve Scherf et al.
# Submitted via: cdripper 1,0,32,406
#
DISCID=660ef819
DTITLE=Creedence Clearwater Revival - CCR  Box Set [CD1]
DYEAR=2001
DGENRE=Blues
TTITLE0=Come On Baby
TTITLE1=Oh My Love
TTITLE2=Have You Ever Been Lonely
TTITLE3=Bonita
TTITLE4=Don't Tell Me No Lies
TTITLE5=Little Girl (Does Your Momma Know)
TTITLE6=Where You Been
TTITLE7=You Came Walking
TTITLE8=You Can't Be True
TTITLE9=You Got Nothin' on Me
TTITLE10=I Only Met You Just an Hour Ago
TTITLE11=Brown-Eyed Girl
TTITLE12=You Better Be Careful
TTITLE13=Fight Fire
TTITLE14=Fragile Child
TTITLE15=She Was Mine
TTITLE16=Gonna Hang Around
TTITLE17=Try Try Try
TTITLE18=Instrumental
TTITLE19=Little Tina
TTITLE20=Walking on The Water
TTITLE21=You Better Get It Before It Get You
TTITLE22=Tell Me
TTITLE23=You Can't Be True
TTITLE24=Action USA promotional spot
EXTD=DISC 1: 1961 - 1967\nPRE-CREEDENCE YEAR: 2001
EXTT0=
EXTT1=
EXTT2=
EXTT3=
EXTT4=
EXTT5=
EXTT6=
EXTT7=
EXTT8=
EXTT9=
EXTT10=
EXTT11=
EXTT12=
EXTT13=
EXTT14=
EXTT15=
EXTT16=
EXTT17=
EXTT18=
EXTT19=
EXTT20=
EXTT21=
EXTT22=
EXTT23=
EXTT24=
PLAYORDER=
